<svg width="53" height="20" viewBox="0 0 53 20" fill="none" xmlns="http://www.w3.org/2000/svg">
<path d="M0.448429 10.9966L9.6525 19.5876C9.94822 19.8625 10.3179 20 10.6875 20C11.0572 20 11.4268 19.8625 11.7225 19.5876C12.3139 19.0378 12.3139 18.1787 11.7225 17.6289L5.03198 11.3746H26.6191C27.4323 11.3746 28.0977 10.756 28.0977 10C28.0977 9.24398 27.4323 8.62543 26.6191 8.62543H5.03198L11.7225 2.37114C12.3139 1.82131 12.3139 0.962199 11.7225 0.412371C11.1311 -0.137457 10.207 -0.137457 9.61555 0.412371L0.411451 9.00344C-0.143013 9.58763 -0.142998 10.4811 0.448429 10.9966Z" fill="#CCD2E9"/>
<rect width="50" height="3.07259" rx="1.53629" transform="matrix(-1 0 0 1 52.6855 8.47925)" fill="#CCD2E9"/>
</svg>
